<svg width="24" height="24" viewBox="0 0 24 24" fill="none" xmlns="http://www.w3.org/2000/svg">
<path fill-rule="evenodd" clip-rule="evenodd" d="M18.7201 13.4043L20.5211 15.2073C20.9891 15.6773 21.1281 16.3773 20.8731 16.9903C20.6191 17.6043 20.0261 18.0003 19.3621 18.0003H16.0001V18.3413C16.0001 20.3593 14.2061 22.0003 12.0001 22.0003C9.79409 22.0003 8.00009 20.3593 8.00009 18.3413V18.0003H4.63709C3.97309 18.0003 3.38009 17.6033 3.12509 16.9903C2.87109 16.3773 3.01009 15.6773 3.47909 15.2083L5.27909 13.4043L5.28009 8.72726C5.28009 6.79326 6.11909 4.94826 7.58309 3.66626C9.03809 2.39026 10.9781 1.80426 12.8991 2.05926C16.2181 2.49926 18.7201 5.45526 18.7201 8.93626V13.4043ZM12.0001 20.0003C13.0841 20.0003 14.0001 19.2403 14.0001 18.3413V18.0003H10.0001V18.3413C10.0001 19.2403 10.9161 20.0003 12.0001 20.0003Z" fill="#1F1F1F"/>
<mask id="mask0_1059_82" style="mask-type:luminance" maskUnits="userSpaceOnUse" x="2" y="2" width="19" height="21">
<path fill-rule="evenodd" clip-rule="evenodd" d="M18.7201 13.4043L20.5211 15.2073C20.9891 15.6773 21.1281 16.3773 20.8731 16.9903C20.6191 17.6043 20.0261 18.0003 19.3621 18.0003H16.0001V18.3413C16.0001 20.3593 14.2061 22.0003 12.0001 22.0003C9.79409 22.0003 8.00009 20.3593 8.00009 18.3413V18.0003H4.63709C3.97309 18.0003 3.38009 17.6033 3.12509 16.9903C2.87109 16.3773 3.01009 15.6773 3.47909 15.2083L5.27909 13.4043L5.28009 8.72726C5.28009 6.79326 6.11909 4.94826 7.58309 3.66626C9.03809 2.39026 10.9781 1.80426 12.8991 2.05926C16.2181 2.49926 18.7201 5.45526 18.7201 8.93626V13.4043ZM12.0001 20.0003C13.0841 20.0003 14.0001 19.2403 14.0001 18.3413V18.0003H10.0001V18.3413C10.0001 19.2403 10.9161 20.0003 12.0001 20.0003Z" fill="white"/>
</mask>
<g mask="url(#mask0_1059_82)">
</g>
</svg>
