<svg width="24" height="24" viewBox="0 0 24 24" fill="none" xmlns="http://www.w3.org/2000/svg">
<path fill-rule="evenodd" clip-rule="evenodd" d="M6 3H18C19.654 3 21 4.346 21 6V18C21 19.654 19.654 21 18 21H6C4.346 21 3 19.654 3 18V6C3 4.346 4.346 3 6 3ZM8 7C8.828 7 9.5 7.672 9.5 8.5C9.5 9.328 8.828 10 8 10C7.172 10 6.5 9.328 6.5 8.5C6.5 7.672 7.172 7 8 7ZM19 17.834C19 18.478 18.552 19 18 19H6L13.566 12.183C13.812 11.938 14.258 11.939 14.499 12.182L19 16.66V17.834Z" fill="#1F1F1F"/>
<mask id="mask0_1059_114" style="mask-type:luminance" maskUnits="userSpaceOnUse" x="3" y="3" width="18" height="18">
<path fill-rule="evenodd" clip-rule="evenodd" d="M6 3H18C19.654 3 21 4.346 21 6V18C21 19.654 19.654 21 18 21H6C4.346 21 3 19.654 3 18V6C3 4.346 4.346 3 6 3ZM8 7C8.828 7 9.5 7.672 9.5 8.5C9.5 9.328 8.828 10 8 10C7.172 10 6.5 9.328 6.5 8.5C6.5 7.672 7.172 7 8 7ZM19 17.834C19 18.478 18.552 19 18 19H6L13.566 12.183C13.812 11.938 14.258 11.939 14.499 12.182L19 16.66V17.834Z" fill="white"/>
</mask>
<g mask="url(#mask0_1059_114)">
</g>
</svg>
