<svg width="24" height="24" viewBox="0 0 24 24" fill="none" xmlns="http://www.w3.org/2000/svg">
<path fill-rule="evenodd" clip-rule="evenodd" d="M16 8H17C18.654 8 20 9.346 20 11V19C20 20.654 18.654 22 17 22H7C5.346 22 4 20.654 4 19V11C4 9.346 5.346 8 7 8H8V6.111C8 3.845 9.794 2 12 2C14.206 2 16 3.845 16 6.111V8ZM10 6.111C10 4.947 10.897 4 12 4C13.103 4 14 4.947 14 6.111V8H10V6.111ZM17 20C17.552 20 18 19.552 18 19V11C18 10.448 17.552 10 17 10H16H14H10H8H7C6.448 10 6 10.448 6 11V19C6 19.552 6.448 20 7 20H17ZM12 12C10.346 12 9 13.346 9 15C9 16.654 10.346 18 12 18C13.654 18 15 16.654 15 15C15 13.346 13.654 12 12 12ZM12 16C11.448 16 11 15.552 11 15C11 14.448 11.448 14 12 14C12.552 14 13 14.448 13 15C13 15.552 12.552 16 12 16Z" fill="#1F1F1F"/>
<mask id="mask0_1059_12" style="mask-type:luminance" maskUnits="userSpaceOnUse" x="4" y="2" width="16" height="20">
<path fill-rule="evenodd" clip-rule="evenodd" d="M16 8H17C18.654 8 20 9.346 20 11V19C20 20.654 18.654 22 17 22H7C5.346 22 4 20.654 4 19V11C4 9.346 5.346 8 7 8H8V6.111C8 3.845 9.794 2 12 2C14.206 2 16 3.845 16 6.111V8ZM10 6.111C10 4.947 10.897 4 12 4C13.103 4 14 4.947 14 6.111V8H10V6.111ZM17 20C17.552 20 18 19.552 18 19V11C18 10.448 17.552 10 17 10H16H14H10H8H7C6.448 10 6 10.448 6 11V19C6 19.552 6.448 20 7 20H17ZM12 12C10.346 12 9 13.346 9 15C9 16.654 10.346 18 12 18C13.654 18 15 16.654 15 15C15 13.346 13.654 12 12 12ZM12 16C11.448 16 11 15.552 11 15C11 14.448 11.448 14 12 14C12.552 14 13 14.448 13 15C13 15.552 12.552 16 12 16Z" fill="white"/>
</mask>
<g mask="url(#mask0_1059_12)">
</g>
</svg>
