<svg width="24" height="24" viewBox="0 0 24 24" fill="none" xmlns="http://www.w3.org/2000/svg">
<path fill-rule="evenodd" clip-rule="evenodd" d="M5 2H19C20.654 2 22 3.346 22 5V15C22 16.654 20.654 18 19 18H8.554C8.373 18 8.195 18.049 8.039 18.143L3.515 20.857C3.356 20.953 3.178 21 3 21C2.83 21 2.66 20.957 2.507 20.87C2.194 20.693 2 20.36 2 20V5C2 3.346 3.346 2 5 2ZM20 15C20 15.551 19.551 16 19 16H8.554C8.011 16 7.477 16.148 7.01 16.428L4 18.234V5C4 4.449 4.449 4 5 4H19C19.551 4 20 4.449 20 5V15ZM7 10C7 9.448 7.448 9 8 9C8.552 9 9 9.448 9 10C9 10.552 8.552 11 8 11C7.448 11 7 10.552 7 10ZM12 9C11.448 9 11 9.448 11 10C11 10.552 11.448 11 12 11C12.552 11 13 10.552 13 10C13 9.448 12.552 9 12 9ZM16 9C15.448 9 15 9.448 15 10C15 10.552 15.448 11 16 11C16.552 11 17 10.552 17 10C17 9.448 16.552 9 16 9Z" fill="#1F1F1F"/>
<mask id="mask0_1059_105" style="mask-type:luminance" maskUnits="userSpaceOnUse" x="2" y="2" width="20" height="19">
<path fill-rule="evenodd" clip-rule="evenodd" d="M5 2H19C20.654 2 22 3.346 22 5V15C22 16.654 20.654 18 19 18H8.554C8.373 18 8.195 18.049 8.039 18.143L3.515 20.857C3.356 20.953 3.178 21 3 21C2.83 21 2.66 20.957 2.507 20.87C2.194 20.693 2 20.36 2 20V5C2 3.346 3.346 2 5 2ZM20 15C20 15.551 19.551 16 19 16H8.554C8.011 16 7.477 16.148 7.01 16.428L4 18.234V5C4 4.449 4.449 4 5 4H19C19.551 4 20 4.449 20 5V15ZM7 10C7 9.448 7.448 9 8 9C8.552 9 9 9.448 9 10C9 10.552 8.552 11 8 11C7.448 11 7 10.552 7 10ZM12 9C11.448 9 11 9.448 11 10C11 10.552 11.448 11 12 11C12.552 11 13 10.552 13 10C13 9.448 12.552 9 12 9ZM16 9C15.448 9 15 9.448 15 10C15 10.552 15.448 11 16 11C16.552 11 17 10.552 17 10C17 9.448 16.552 9 16 9Z" fill="white"/>
</mask>
<g mask="url(#mask0_1059_105)">
</g>
</svg>
